<mxfile host="app.diagrams.net" modified="2022-04-04T08:11:18.386Z" agent="5.0 (Macintosh; Intel Mac OS X 10_15_7) AppleWebKit/605.1.15 (KHTML, like Gecko) Version/15.3 Safari/605.1.15" etag="fRBJQfErDWdhkDctOc9X" version="17.4.0" type="github">
  <diagram id="C5RBs43oDa-KdzZeNtuy" name="Page-1">
    <mxGraphModel dx="1414" dy="770" grid="1" gridSize="10" guides="1" tooltips="1" connect="1" arrows="1" fold="1" page="1" pageScale="1" pageWidth="827" pageHeight="1169" math="0" shadow="0">
      <root>
        <mxCell id="WIyWlLk6GJQsqaUBKTNV-0" />
        <mxCell id="WIyWlLk6GJQsqaUBKTNV-1" parent="WIyWlLk6GJQsqaUBKTNV-0" />
        <mxCell id="hm7BqYwgh4JLyqCL0zQq-0" value="Switchbox 3.0" style="whiteSpace=wrap;html=1;aspect=fixed;fontSize=17;fontStyle=1;verticalAlign=top;" vertex="1" parent="WIyWlLk6GJQsqaUBKTNV-1">
          <mxGeometry x="360" y="350" width="360" height="360" as="geometry" />
        </mxCell>
        <mxCell id="hm7BqYwgh4JLyqCL0zQq-1" value="Mess-PC" style="whiteSpace=wrap;html=1;aspect=fixed;fontSize=17;verticalAlign=top;" vertex="1" parent="WIyWlLk6GJQsqaUBKTNV-1">
          <mxGeometry x="60" y="180" width="180" height="180" as="geometry" />
        </mxCell>
        <mxCell id="hm7BqYwgh4JLyqCL0zQq-2" value="MET/CAL" style="whiteSpace=wrap;html=1;aspect=fixed;fontSize=17;" vertex="1" parent="WIyWlLk6GJQsqaUBKTNV-1">
          <mxGeometry x="160" y="280" width="80" height="80" as="geometry" />
        </mxCell>
        <mxCell id="hm7BqYwgh4JLyqCL0zQq-3" value="Kalibrator&lt;br&gt;Fluke&lt;br&gt;5320A" style="whiteSpace=wrap;html=1;aspect=fixed;fontSize=17;" vertex="1" parent="WIyWlLk6GJQsqaUBKTNV-1">
          <mxGeometry x="620" y="180" width="100" height="100" as="geometry" />
        </mxCell>
        <mxCell id="hm7BqYwgh4JLyqCL0zQq-4" value="GerÃ¤tetster&lt;br&gt;Fluke 6x00 (-2)" style="whiteSpace=wrap;html=1;aspect=fixed;fontSize=17;" vertex="1" parent="WIyWlLk6GJQsqaUBKTNV-1">
          <mxGeometry x="90" y="520" width="120" height="120" as="geometry" />
        </mxCell>
        <mxCell id="hm7BqYwgh4JLyqCL0zQq-7" value="Outguard&lt;br&gt;Prozessor" style="whiteSpace=wrap;html=1;aspect=fixed;fontSize=17;" vertex="1" parent="WIyWlLk6GJQsqaUBKTNV-1">
          <mxGeometry x="460" y="420" width="80" height="80" as="geometry" />
        </mxCell>
        <mxCell id="hm7BqYwgh4JLyqCL0zQq-8" value="Relais&lt;br&gt;Matrix" style="whiteSpace=wrap;html=1;aspect=fixed;fontSize=17;" vertex="1" parent="WIyWlLk6GJQsqaUBKTNV-1">
          <mxGeometry x="630" y="440" width="80" height="80" as="geometry" />
        </mxCell>
        <mxCell id="hm7BqYwgh4JLyqCL0zQq-9" value="Inguard&lt;br&gt;Prozessor" style="whiteSpace=wrap;html=1;aspect=fixed;fontSize=17;" vertex="1" parent="WIyWlLk6GJQsqaUBKTNV-1">
          <mxGeometry x="630" y="585" width="80" height="80" as="geometry" />
        </mxCell>
        <mxCell id="hm7BqYwgh4JLyqCL0zQq-10" value="PELV&lt;br&gt;RPE&lt;br&gt;Messung" style="whiteSpace=wrap;html=1;aspect=fixed;fontSize=17;" vertex="1" parent="WIyWlLk6GJQsqaUBKTNV-1">
          <mxGeometry x="414" y="585" width="80" height="80" as="geometry" />
        </mxCell>
      </root>
    </mxGraphModel>
  </diagram>
</mxfile>
